{
	"asset":{
		"generator":"Khronos glTF Blender I/O v4.1.62",
		"version":"2.0"
	},
	"scene":0,
	"scenes":[
		{
			"name":"Scene",
			"nodes":[
				3
			]
		}
	],
	"nodes":[
		{
			"mesh":0,
			"name":"DoorKnob"
		},
		{
			"children":[
				0
			],
			"name":"Knob Pivot",
			"translation":[
				0.8568940758705139,
				0.780472993850708,
				0.04879689961671829
			]
		},
		{
			"children":[
				1
			],
			"mesh":1,
			"name":"Door"
		},
		{
			"children":[
				2
			],
			"name":"DoorHinge"
		}
	],
	"animations":[
		{
			"channels":[
				{
					"sampler":0,
					"target":{
						"node":3,
						"path":"rotation"
					}
				}
			],
			"name":"[Action Stash].001",
			"samplers":[
				{
					"input":8,
					"interpolation":"LINEAR",
					"output":9
				}
			]
		},
		{
			"channels":[
				{
					"sampler":0,
					"target":{
						"node":3,
						"path":"translation"
					}
				},
				{
					"sampler":1,
					"target":{
						"node":3,
						"path":"rotation"
					}
				},
				{
					"sampler":2,
					"target":{
						"node":3,
						"path":"scale"
					}
				}
			],
			"name":"DoorClosed",
			"samplers":[
				{
					"input":10,
					"interpolation":"STEP",
					"output":11
				},
				{
					"input":10,
					"interpolation":"STEP",
					"output":12
				},
				{
					"input":10,
					"interpolation":"STEP",
					"output":13
				}
			]
		},
		{
			"channels":[
				{
					"sampler":0,
					"target":{
						"node":3,
						"path":"translation"
					}
				},
				{
					"sampler":1,
					"target":{
						"node":3,
						"path":"rotation"
					}
				},
				{
					"sampler":2,
					"target":{
						"node":3,
						"path":"scale"
					}
				}
			],
			"name":"DoorOpen",
			"samplers":[
				{
					"input":10,
					"interpolation":"STEP",
					"output":14
				},
				{
					"input":10,
					"interpolation":"STEP",
					"output":15
				},
				{
					"input":10,
					"interpolation":"STEP",
					"output":16
				}
			]
		},
		{
			"channels":[
				{
					"sampler":0,
					"target":{
						"node":3,
						"path":"translation"
					}
				},
				{
					"sampler":1,
					"target":{
						"node":3,
						"path":"rotation"
					}
				},
				{
					"sampler":2,
					"target":{
						"node":3,
						"path":"scale"
					}
				},
				{
					"sampler":3,
					"target":{
						"node":1,
						"path":"translation"
					}
				},
				{
					"sampler":4,
					"target":{
						"node":1,
						"path":"rotation"
					}
				},
				{
					"sampler":5,
					"target":{
						"node":1,
						"path":"scale"
					}
				}
			],
			"name":"Door_Action_Open",
			"samplers":[
				{
					"input":10,
					"interpolation":"STEP",
					"output":17
				},
				{
					"input":8,
					"interpolation":"LINEAR",
					"output":18
				},
				{
					"input":10,
					"interpolation":"STEP",
					"output":19
				},
				{
					"input":10,
					"interpolation":"LINEAR",
					"output":20
				},
				{
					"input":8,
					"interpolation":"LINEAR",
					"output":21
				},
				{
					"input":10,
					"interpolation":"STEP",
					"output":22
				}
			]
		},
		{
			"channels":[
				{
					"sampler":0,
					"target":{
						"node":3,
						"path":"translation"
					}
				},
				{
					"sampler":1,
					"target":{
						"node":3,
						"path":"rotation"
					}
				},
				{
					"sampler":2,
					"target":{
						"node":3,
						"path":"scale"
					}
				},
				{
					"sampler":3,
					"target":{
						"node":1,
						"path":"translation"
					}
				},
				{
					"sampler":4,
					"target":{
						"node":1,
						"path":"rotation"
					}
				},
				{
					"sampler":5,
					"target":{
						"node":1,
						"path":"scale"
					}
				}
			],
			"name":"Door_Action_Close",
			"samplers":[
				{
					"input":10,
					"interpolation":"STEP",
					"output":23
				},
				{
					"input":8,
					"interpolation":"LINEAR",
					"output":24
				},
				{
					"input":10,
					"interpolation":"STEP",
					"output":25
				},
				{
					"input":10,
					"interpolation":"LINEAR",
					"output":26
				},
				{
					"input":8,
					"interpolation":"LINEAR",
					"output":27
				},
				{
					"input":10,
					"interpolation":"STEP",
					"output":28
				}
			]
		},
		{
			"channels":[
				{
					"sampler":0,
					"target":{
						"node":3,
						"path":"translation"
					}
				},
				{
					"sampler":1,
					"target":{
						"node":3,
						"path":"rotation"
					}
				},
				{
					"sampler":2,
					"target":{
						"node":3,
						"path":"scale"
					}
				},
				{
					"sampler":3,
					"target":{
						"node":1,
						"path":"translation"
					}
				},
				{
					"sampler":4,
					"target":{
						"node":1,
						"path":"rotation"
					}
				},
				{
					"sampler":5,
					"target":{
						"node":1,
						"path":"scale"
					}
				}
			],
			"name":"Door_Action_Locked",
			"samplers":[
				{
					"input":10,
					"interpolation":"STEP",
					"output":29
				},
				{
					"input":8,
					"interpolation":"LINEAR",
					"output":30
				},
				{
					"input":10,
					"interpolation":"STEP",
					"output":31
				},
				{
					"input":10,
					"interpolation":"LINEAR",
					"output":32
				},
				{
					"input":8,
					"interpolation":"LINEAR",
					"output":33
				},
				{
					"input":10,
					"interpolation":"STEP",
					"output":34
				}
			]
		}
	],
	"materials":[
		{
			"doubleSided":true,
			"name":"DoorKnob",
			"pbrMetallicRoughness":{
				"baseColorFactor":[
					0.800000011920929,
					0.800000011920929,
					0.800000011920929,
					1
				],
				"metallicFactor":0,
				"roughnessFactor":0.5
			}
		},
		{
			"doubleSided":true,
			"name":"DoorMaterial",
			"pbrMetallicRoughness":{
				"baseColorTexture":{
					"index":0
				},
				"metallicFactor":0,
				"roughnessFactor":0.5
			}
		}
	],
	"meshes":[
		{
			"name":"Cube.010",
			"primitives":[
				{
					"attributes":{
						"POSITION":0,
						"NORMAL":1,
						"TEXCOORD_0":2
					},
					"indices":3,
					"material":0
				}
			]
		},
		{
			"name":"Cube.002",
			"primitives":[
				{
					"attributes":{
						"POSITION":4,
						"NORMAL":5,
						"TEXCOORD_0":6
					},
					"indices":7,
					"material":1
				}
			]
		}
	],
	"textures":[
		{
			"sampler":0,
			"source":0
		}
	],
	"images":[
		{
			"mimeType":"image/png",
			"name":"RGB Alpha_1",
			"uri":"RGB%20Alpha_1.png"
		}
	],
	"accessors":[
		{
			"bufferView":0,
			"componentType":5126,
			"count":1048,
			"max":[
				0.03151312097907066,
				0.031155189499258995,
				0.13336914777755737
			],
			"min":[
				-0.09213463217020035,
				-0.03284487873315811,
				-0.12902706861495972
			],
			"type":"VEC3"
		},
		{
			"bufferView":1,
			"componentType":5126,
			"count":1048,
			"type":"VEC3"
		},
		{
			"bufferView":2,
			"componentType":5126,
			"count":1048,
			"type":"VEC2"
		},
		{
			"bufferView":3,
			"componentType":5123,
			"count":3120,
			"type":"SCALAR"
		},
		{
			"bufferView":4,
			"componentType":5126,
			"count":24,
			"max":[
				0.925000011920929,
				1.9500000476837158,
				0.09999999403953552
			],
			"min":[
				0,
				0,
				-3.2142060035766917e-07
			],
			"type":"VEC3"
		},
		{
			"bufferView":5,
			"componentType":5126,
			"count":24,
			"type":"VEC3"
		},
		{
			"bufferView":6,
			"componentType":5126,
			"count":24,
			"type":"VEC2"
		},
		{
			"bufferView":7,
			"componentType":5123,
			"count":36,
			"type":"SCALAR"
		},
		{
			"bufferView":8,
			"componentType":5126,
			"count":31,
			"max":[
				1.25
			],
			"min":[
				0
			],
			"type":"SCALAR"
		},
		{
			"bufferView":9,
			"componentType":5126,
			"count":31,
			"type":"VEC4"
		},
		{
			"bufferView":10,
			"componentType":5126,
			"count":2,
			"max":[
				1.25
			],
			"min":[
				0
			],
			"type":"SCALAR"
		},
		{
			"bufferView":11,
			"componentType":5126,
			"count":2,
			"type":"VEC3"
		},
		{
			"bufferView":12,
			"componentType":5126,
			"count":2,
			"type":"VEC4"
		},
		{
			"bufferView":13,
			"componentType":5126,
			"count":2,
			"type":"VEC3"
		},
		{
			"bufferView":14,
			"componentType":5126,
			"count":2,
			"type":"VEC3"
		},
		{
			"bufferView":15,
			"componentType":5126,
			"count":2,
			"type":"VEC4"
		},
		{
			"bufferView":16,
			"componentType":5126,
			"count":2,
			"type":"VEC3"
		},
		{
			"bufferView":17,
			"componentType":5126,
			"count":2,
			"type":"VEC3"
		},
		{
			"bufferView":18,
			"componentType":5126,
			"count":31,
			"type":"VEC4"
		},
		{
			"bufferView":19,
			"componentType":5126,
			"count":2,
			"type":"VEC3"
		},
		{
			"bufferView":20,
			"componentType":5126,
			"count":2,
			"type":"VEC3"
		},
		{
			"bufferView":21,
			"componentType":5126,
			"count":31,
			"type":"VEC4"
		},
		{
			"bufferView":22,
			"componentType":5126,
			"count":2,
			"type":"VEC3"
		},
		{
			"bufferView":23,
			"componentType":5126,
			"count":2,
			"type":"VEC3"
		},
		{
			"bufferView":24,
			"componentType":5126,
			"count":31,
			"type":"VEC4"
		},
		{
			"bufferView":25,
			"componentType":5126,
			"count":2,
			"type":"VEC3"
		},
		{
			"bufferView":26,
			"componentType":5126,
			"count":2,
			"type":"VEC3"
		},
		{
			"bufferView":27,
			"componentType":5126,
			"count":31,
			"type":"VEC4"
		},
		{
			"bufferView":28,
			"componentType":5126,
			"count":2,
			"type":"VEC3"
		},
		{
			"bufferView":29,
			"componentType":5126,
			"count":2,
			"type":"VEC3"
		},
		{
			"bufferView":30,
			"componentType":5126,
			"count":31,
			"type":"VEC4"
		},
		{
			"bufferView":31,
			"componentType":5126,
			"count":2,
			"type":"VEC3"
		},
		{
			"bufferView":32,
			"componentType":5126,
			"count":2,
			"type":"VEC3"
		},
		{
			"bufferView":33,
			"componentType":5126,
			"count":31,
			"type":"VEC4"
		},
		{
			"bufferView":34,
			"componentType":5126,
			"count":2,
			"type":"VEC3"
		}
	],
	"bufferViews":[
		{
			"buffer":0,
			"byteLength":12576,
			"byteOffset":0,
			"target":34962
		},
		{
			"buffer":0,
			"byteLength":12576,
			"byteOffset":12576,
			"target":34962
		},
		{
			"buffer":0,
			"byteLength":8384,
			"byteOffset":25152,
			"target":34962
		},
		{
			"buffer":0,
			"byteLength":6240,
			"byteOffset":33536,
			"target":34963
		},
		{
			"buffer":0,
			"byteLength":288,
			"byteOffset":39776,
			"target":34962
		},
		{
			"buffer":0,
			"byteLength":288,
			"byteOffset":40064,
			"target":34962
		},
		{
			"buffer":0,
			"byteLength":192,
			"byteOffset":40352,
			"target":34962
		},
		{
			"buffer":0,
			"byteLength":72,
			"byteOffset":40544,
			"target":34963
		},
		{
			"buffer":0,
			"byteLength":124,
			"byteOffset":40616
		},
		{
			"buffer":0,
			"byteLength":496,
			"byteOffset":40740
		},
		{
			"buffer":0,
			"byteLength":8,
			"byteOffset":41236
		},
		{
			"buffer":0,
			"byteLength":24,
			"byteOffset":41244
		},
		{
			"buffer":0,
			"byteLength":32,
			"byteOffset":41268
		},
		{
			"buffer":0,
			"byteLength":24,
			"byteOffset":41300
		},
		{
			"buffer":0,
			"byteLength":24,
			"byteOffset":41324
		},
		{
			"buffer":0,
			"byteLength":32,
			"byteOffset":41348
		},
		{
			"buffer":0,
			"byteLength":24,
			"byteOffset":41380
		},
		{
			"buffer":0,
			"byteLength":24,
			"byteOffset":41404
		},
		{
			"buffer":0,
			"byteLength":496,
			"byteOffset":41428
		},
		{
			"buffer":0,
			"byteLength":24,
			"byteOffset":41924
		},
		{
			"buffer":0,
			"byteLength":24,
			"byteOffset":41948
		},
		{
			"buffer":0,
			"byteLength":496,
			"byteOffset":41972
		},
		{
			"buffer":0,
			"byteLength":24,
			"byteOffset":42468
		},
		{
			"buffer":0,
			"byteLength":24,
			"byteOffset":42492
		},
		{
			"buffer":0,
			"byteLength":496,
			"byteOffset":42516
		},
		{
			"buffer":0,
			"byteLength":24,
			"byteOffset":43012
		},
		{
			"buffer":0,
			"byteLength":24,
			"byteOffset":43036
		},
		{
			"buffer":0,
			"byteLength":496,
			"byteOffset":43060
		},
		{
			"buffer":0,
			"byteLength":24,
			"byteOffset":43556
		},
		{
			"buffer":0,
			"byteLength":24,
			"byteOffset":43580
		},
		{
			"buffer":0,
			"byteLength":496,
			"byteOffset":43604
		},
		{
			"buffer":0,
			"byteLength":24,
			"byteOffset":44100
		},
		{
			"buffer":0,
			"byteLength":24,
			"byteOffset":44124
		},
		{
			"buffer":0,
			"byteLength":496,
			"byteOffset":44148
		},
		{
			"buffer":0,
			"byteLength":24,
			"byteOffset":44644
		}
	],
	"samplers":[
		{
			"magFilter":9729,
			"minFilter":9987
		}
	],
	"buffers":[
		{
			"byteLength":44668,
			"uri":"Door_v19.bin"
		}
	]
}
