{
	"asset":{
		"generator":"Khronos glTF Blender I/O v4.1.62",
		"version":"2.0"
	},
	"scene":0,
	"scenes":[
		{
			"name":"Scene",
			"nodes":[
				3
			]
		}
	],
	"nodes":[
		{
			"mesh":0,
			"name":"DoorKnob"
		},
		{
			"children":[
				0
			],
			"name":"Knob Pivot",
			"translation":[
				0.8568940758705139,
				0.780472993850708,
				0.04879703000187874
			]
		},
		{
			"children":[
				1
			],
			"mesh":1,
			"name":"Door"
		},
		{
			"children":[
				2
			],
			"name":"DoorHinge"
		}
	],
	"animations":[
		{
			"channels":[
				{
					"sampler":0,
					"target":{
						"node":3,
						"path":"translation"
					}
				},
				{
					"sampler":1,
					"target":{
						"node":3,
						"path":"rotation"
					}
				},
				{
					"sampler":2,
					"target":{
						"node":3,
						"path":"scale"
					}
				},
				{
					"sampler":3,
					"target":{
						"node":1,
						"path":"translation"
					}
				},
				{
					"sampler":4,
					"target":{
						"node":1,
						"path":"rotation"
					}
				},
				{
					"sampler":5,
					"target":{
						"node":1,
						"path":"scale"
					}
				}
			],
			"name":"Door Open",
			"samplers":[
				{
					"input":8,
					"interpolation":"STEP",
					"output":9
				},
				{
					"input":10,
					"interpolation":"LINEAR",
					"output":11
				},
				{
					"input":8,
					"interpolation":"STEP",
					"output":12
				},
				{
					"input":8,
					"interpolation":"STEP",
					"output":13
				},
				{
					"input":10,
					"interpolation":"LINEAR",
					"output":14
				},
				{
					"input":8,
					"interpolation":"STEP",
					"output":15
				}
			]
		}
	],
	"materials":[
		{
			"doubleSided":true,
			"name":"DoorHandle_Mat.001",
			"pbrMetallicRoughness":{
				"baseColorFactor":[
					0.800000011920929,
					0.800000011920929,
					0.800000011920929,
					1
				],
				"metallicFactor":0,
				"roughnessFactor":0.5
			}
		},
		{
			"doubleSided":true,
			"name":"Material.001",
			"pbrMetallicRoughness":{
				"baseColorFactor":[
					0.800000011920929,
					0.800000011920929,
					0.800000011920929,
					1
				],
				"metallicFactor":0,
				"roughnessFactor":0.5
			}
		}
	],
	"meshes":[
		{
			"name":"Cube.010",
			"primitives":[
				{
					"attributes":{
						"POSITION":0,
						"NORMAL":1,
						"TEXCOORD_0":2
					},
					"indices":3,
					"material":0
				}
			]
		},
		{
			"name":"Cube.002",
			"primitives":[
				{
					"attributes":{
						"POSITION":4,
						"NORMAL":5,
						"TEXCOORD_0":6
					},
					"indices":7,
					"material":1
				}
			]
		}
	],
	"accessors":[
		{
			"bufferView":0,
			"componentType":5126,
			"count":656,
			"max":[
				0.03200000524520874,
				0.031999945640563965,
				0.13119813799858093
			],
			"min":[
				-0.09164774417877197,
				-0.03200012445449829,
				-0.13119809329509735
			],
			"type":"VEC3"
		},
		{
			"bufferView":1,
			"componentType":5126,
			"count":656,
			"type":"VEC3"
		},
		{
			"bufferView":2,
			"componentType":5126,
			"count":656,
			"type":"VEC2"
		},
		{
			"bufferView":3,
			"componentType":5123,
			"count":3120,
			"type":"SCALAR"
		},
		{
			"bufferView":4,
			"componentType":5126,
			"count":14,
			"max":[
				0.925000011920929,
				1.9500000476837158,
				0.10000000149011612
			],
			"min":[
				0,
				0,
				0
			],
			"type":"VEC3"
		},
		{
			"bufferView":5,
			"componentType":5126,
			"count":14,
			"type":"VEC3"
		},
		{
			"bufferView":6,
			"componentType":5126,
			"count":14,
			"type":"VEC2"
		},
		{
			"bufferView":7,
			"componentType":5123,
			"count":36,
			"type":"SCALAR"
		},
		{
			"bufferView":8,
			"componentType":5126,
			"count":2,
			"max":[
				1.25
			],
			"min":[
				0
			],
			"type":"SCALAR"
		},
		{
			"bufferView":9,
			"componentType":5126,
			"count":2,
			"type":"VEC3"
		},
		{
			"bufferView":10,
			"componentType":5126,
			"count":31,
			"max":[
				1.25
			],
			"min":[
				0
			],
			"type":"SCALAR"
		},
		{
			"bufferView":11,
			"componentType":5126,
			"count":31,
			"type":"VEC4"
		},
		{
			"bufferView":12,
			"componentType":5126,
			"count":2,
			"type":"VEC3"
		},
		{
			"bufferView":13,
			"componentType":5126,
			"count":2,
			"type":"VEC3"
		},
		{
			"bufferView":14,
			"componentType":5126,
			"count":31,
			"type":"VEC4"
		},
		{
			"bufferView":15,
			"componentType":5126,
			"count":2,
			"type":"VEC3"
		}
	],
	"bufferViews":[
		{
			"buffer":0,
			"byteLength":7872,
			"byteOffset":0,
			"target":34962
		},
		{
			"buffer":0,
			"byteLength":7872,
			"byteOffset":7872,
			"target":34962
		},
		{
			"buffer":0,
			"byteLength":5248,
			"byteOffset":15744,
			"target":34962
		},
		{
			"buffer":0,
			"byteLength":6240,
			"byteOffset":20992,
			"target":34963
		},
		{
			"buffer":0,
			"byteLength":168,
			"byteOffset":27232,
			"target":34962
		},
		{
			"buffer":0,
			"byteLength":168,
			"byteOffset":27400,
			"target":34962
		},
		{
			"buffer":0,
			"byteLength":112,
			"byteOffset":27568,
			"target":34962
		},
		{
			"buffer":0,
			"byteLength":72,
			"byteOffset":27680,
			"target":34963
		},
		{
			"buffer":0,
			"byteLength":8,
			"byteOffset":27752
		},
		{
			"buffer":0,
			"byteLength":24,
			"byteOffset":27760
		},
		{
			"buffer":0,
			"byteLength":124,
			"byteOffset":27784
		},
		{
			"buffer":0,
			"byteLength":496,
			"byteOffset":27908
		},
		{
			"buffer":0,
			"byteLength":24,
			"byteOffset":28404
		},
		{
			"buffer":0,
			"byteLength":24,
			"byteOffset":28428
		},
		{
			"buffer":0,
			"byteLength":496,
			"byteOffset":28452
		},
		{
			"buffer":0,
			"byteLength":24,
			"byteOffset":28948
		}
	],
	"buffers":[
		{
			"byteLength":28972,
			"uri":"Door_v13.bin"
		}
	]
}
